<svg xmlns="http://www.w3.org/2000/svg" width="16" height="24.411" viewBox="0 0 16 24.411"><path d="M-921.145,962.143v-3.936a2.558,2.558,0,0,1,2.531-2.6,2.559,2.559,0,0,1,2.532,2.6v3.936a4.778,4.778,0,0,0,2.055-3.936,4.65,4.65,0,0,0-4.587-4.707,4.65,4.65,0,0,0-4.587,4.707A4.715,4.715,0,0,0-921.145,962.143Z" transform="translate(925.138 -953.5)" fill="#222"/><path d="M-916.262,974a1.545,1.545,0,0,0-1.354.515,1.566,1.566,0,0,0-1.5-1.209,1.539,1.539,0,0,0-1.178.566,1.547,1.547,0,0,0-1.479-1.106,1.6,1.6,0,0,0-1.1.463v-6.019a1.648,1.648,0,0,0-1.329-1.646,1.566,1.566,0,0,0-1.754,1.569v10.7c0,.206-.276.309-.376.128l-1.8-2.8a1.458,1.458,0,0,0-2.056-.309,1.541,1.541,0,0,0-.526,2.058s5.038,7.82,5.063,7.845a4.845,4.845,0,0,0,4.01,2.109h1.479a5.322,5.322,0,0,0,4.988-3.524,4.246,4.246,0,0,0,.25-1.569v-6.148A1.62,1.62,0,0,0-916.262,974Z" transform="translate(930.933 -962.447)" fill="#222"/></svg>