<svg width="120px" height="624px" viewBox="0 0 120 624" version="1.1" xmlns="http://www.w3.org/2000/svg" xmlns:xlink="http://www.w3.org/1999/xlink">
    <!-- Generator: Sketch 55.2 (78181) - https://sketchapp.com -->
    <title>Artboard</title>
    <desc>Created with Sketch.</desc>
    <defs>
        <polygon id="path-1" points="0.928 0.5451125 37.1425455 0.5451125 37.1425455 27 0.928 27"/>
        <polygon id="path-3" points="0 0.1035875 37.0938182 0.1035875 37.0938182 26.3268375 0 26.3268375"/>
        <polygon id="path-5" points="0 624 120 624 120 0 0 0"/>
    </defs>
    <g id="Artboard" stroke="none" stroke-width="1" fill="none" fill-rule="evenodd">
        <g id="Group-29">
            <g id="Group-3" transform="translate(0.000000, 597.000000)">
                <mask id="mask-2" fill="white">
                    <use xlink:href="#path-1"/>
                </mask>
                <g id="Clip-2"/>
                <path d="M0.928,27.0003625 L0.928,22.3966125 L22.8334545,22.3966125 C29.3970909,22.3966125 32.5352727,19.7177375 32.5352727,13.7944875 C32.5352727,7.9691125 29.3498182,5.1488625 22.8334545,5.1488625 L0.928,5.1488625 L0.928,0.5451125 L22.7825455,0.5451125 C32.2407273,0.5451125 37.1425455,5.2902375 37.1425455,14.3128625 C37.1425455,22.7699875 32.3389091,27.0003625 22.7825455,27.0003625 L0.928,27.0003625 Z" id="Fill-1" fill="#fff" mask="url(#mask-2)"/>
            </g>
            <path d="M10.5347415,590 L10.5347415,585.968293 L15.1125625,585.968293 C11.6548082,584.640244 10,582.364634 10,579.090244 C10,578.713415 10,578.380488 10.0469705,578 L14.5742079,578 C14.5272374,578.332927 14.5272374,578.662195 14.5272374,578.995122 C14.5272374,583.454878 17.0600334,585.82561 21.8293496,585.82561 L36,585.82561 L36,590 L10.5347415,590 Z" id="Fill-4" fill="#fff"/>
            <path d="M1,573 L1,568.921597 L14.1751641,568.921597 C11.2857143,567.023219 9.76648157,564.320134 9.76648157,560.907443 C9.76648157,554.45881 14.9602221,550 23.4795558,550 C31.8571429,550 37,554.363709 37,560.859892 C37,564.27624 35.7751641,566.836673 32.9838465,568.921597 L36.2149419,568.921597 L36.2149419,573 L1,573 Z M33.1801111,561.759701 C33.1801111,557.209447 29.6509844,554.363709 23.7739525,554.363709 C17.1627461,554.363709 13.6372539,557.114345 13.6372539,561.715808 C13.6372539,566.598919 16.8211005,569.064249 23.2360424,569.064249 C29.7018677,569.064249 33.1801111,566.361164 33.1801111,561.759701 L33.1801111,561.759701 Z" id="Fill-6" fill="#fff"/>
            <path d="M37,538.084322 C37,543.11243 34.0848792,546 29.3752836,546 C24.7161351,546 22.1397304,543.252498 21.4118511,537.664116 C20.9758441,534.266552 20.8785533,531.985946 20.4425464,530.962367 C19.9560924,529.841818 19.3723475,529.79872 17.6751635,529.79872 C15.0987588,529.79872 13.790738,531.61243 13.790738,535.290131 C13.790738,539.107901 15.4410783,541.018582 18.5003336,541.018582 L18.5003336,544.883042 L18.305752,544.883042 C13.2069932,544.883042 10,541.25203 10,535.150062 C10,528.63148 12.4791138,525.654122 17.8697451,525.654122 L30.589617,525.654122 C32.3372481,525.654122 33.1624183,525.514054 33.1624183,524.070269 C33.1624183,523.790131 33.1155745,523.463304 33.0182837,523 L36.3189644,523 C36.5639931,523.88351 36.7081276,524.626952 36.7081276,525.373985 C36.7081276,528.121487 35.4469505,529.471893 32.97144,529.471893 L32.8237021,529.471893 C35.591085,531.985946 37,534.826827 37,538.084322 M25.0548512,537.570737 C25.5413052,540.504997 26.7556386,541.762024 29.3284399,541.762024 C31.8039504,541.762024 33.2597091,540.224859 33.2597091,537.38757 C33.2597091,532.916146 30.6400641,529.841818 27.0943547,529.841818 L23.3072201,529.841818 C24.5215534,532.032636 24.5683972,534.686758 25.0548512,537.570737" id="Fill-8" fill="#fff"/>
            <path d="M20.381282,501.074139 C15.8709677,501.074139 13.7831926,502.034422 13.7831926,505.879082 C13.7831926,510.320388 16.5476949,512.975287 21.5439568,512.975287 L36,512.975287 L36,517 L10.6299322,517 L10.6299322,513.15887 L14.3195348,513.15887 C11.4074484,511.326567 10,508.809356 10,505.46955 C10,501.850838 11.1662744,499.383054 13.444829,498.059135 C15.0934515,497.045896 17.0840371,497 19.5569708,497 L20.7700401,497 L36,497 L36,501.074139 L20.381282,501.074139 Z" id="Fill-10" fill="#fff"/>
            <g id="Group-14" transform="translate(0.000000, 168.000000)">
                <mask id="mask-4" fill="white">
                    <use xlink:href="#path-3"/>
                </mask>
                <g id="Clip-13"/>
                <path d="M24.5483636,21.9079625 C29.6938182,21.8137125 32.9265455,18.3844625 32.9265455,13.1209625 C32.9265455,7.7632125 30.3810909,4.6602125 26.5083636,4.6602125 C22.2938182,4.6602125 21.7047273,7.8103375 20.1883636,13.9184625 C18.3265455,21.3895875 16.6101818,25.2465875 10.4356364,25.2465875 C4.26109091,25.2465875 -0.000727272727,20.5920875 -0.000727272727,13.1680875 C-0.000727272727,5.6969625 4.26109091,1.1367125 11.2683636,1.0895875 L11.2683636,5.4613375 C6.56290909,5.7875875 3.96654545,8.6549625 3.96654545,13.4508375 C3.96654545,18.0545875 6.272,20.8748375 9.60290909,20.8748375 C14.112,20.8748375 14.4029091,17.7247125 16.1701818,10.6305875 C17.0029091,7.3390875 17.5883636,4.7544625 19.2574545,2.8767125 C20.8247273,1.0895875 23.1265455,0.1035875 25.9701818,0.1035875 C32.6829091,0.1035875 37.0938182,4.9900875 37.0938182,13.0738375 C37.0938182,21.2518375 32.632,25.9969625 24.5483636,26.3268375 L24.5483636,21.9079625 Z" id="Fill-12" fill="#fff" mask="url(#mask-4)"/>
            </g>
            <path d="M13.8375817,152.572049 C13.8375817,157.049925 17.1887095,159.66906 23.4513546,159.66906 C29.7176031,159.66906 33.1155745,157.145433 33.1155745,152.858574 C33.1155745,148.953749 31.0256239,146.573385 27.0943547,146.000334 L27.0943547,142 C33.3101561,142.429788 37,146.477876 37,153.049591 C37,159.812323 31.998532,164 23.5990925,164 C15.0519151,164 10,159.621306 10,152.572049 C10,146.239105 13.6430001,142.286525 19.2750567,142.047754 L19.2750567,146.191351 C15.8302416,146.430122 13.8375817,148.714977 13.8375817,152.572049" id="Fill-15" fill="#fff"/>
            <mask id="mask-6" fill="white">
                <use xlink:href="#path-5"/>
            </mask>
            <g id="Clip-18"/>
            <path d="M1,136 L5.86943957,136 L5.86943957,132 L1,132 L1,136 Z M10.5402002,136 L36,136 L36,132 L10.5402002,132 L10.5402002,136 Z" id="Fill-17" fill="#fff" mask="url(#mask-6)"/>
            <path d="M27.9832157,104.327874 C33.6047689,105.214216 37,109.278415 37,115.025221 C37,121.748444 32.0042627,126 23.7679499,126 C14.9957373,126 10,121.748444 10,115.025221 C10,108.064199 14.6072999,104 22.8472093,104 C23.4766218,104 24.1060344,104 24.7354469,104.046839 L24.7354469,121.705208 C30.116025,121.607927 33.1192221,118.995742 33.1192221,114.650508 C33.1192221,111.288896 31.2777408,109.044219 27.9832157,108.392073 L27.9832157,104.327874 Z M21.1963501,108.298395 C16.3984281,108.345234 13.7836686,110.726826 13.7836686,114.884704 C13.7836686,118.948903 16.3516718,121.330495 21.1963501,121.705208 L21.1963501,108.298395 Z" id="Fill-19" fill="#fff" mask="url(#mask-6)"/>
            <path d="M20.381282,82.0741395 C15.8709677,82.0741395 13.7831926,83.0344219 13.7831926,86.8790821 C13.7831926,91.3203883 16.5476949,93.9752868 21.5439568,93.9752868 L36,93.9752868 L36,98 L10.6299322,98 L10.6299322,94.1588703 L14.3195348,94.1588703 C11.4074484,92.3265666 10,89.8093557 10,86.4695499 C10,82.8508385 11.1662744,80.3795234 13.444829,79.0520741 C15.0934515,78.0458959 17.0840371,78 19.5569708,78 L20.7700401,78 L36,78 L36,82.0741395 L20.381282,82.0741395 Z" id="Fill-20" fill="#fff" mask="url(#mask-6)"/>
            <path d="M13.8375817,60.5720488 C13.8375817,65.0499249 17.1887095,67.6690599 23.4513546,67.6690599 C29.7176031,67.6690599 33.1155745,65.1454333 33.1155745,60.8585741 C33.1155745,56.9537485 31.0256239,54.5733845 27.0943547,54.0003339 L27.0943547,50 C33.3101561,50.4297879 37,54.4778761 37,61.0495909 C37,67.8123226 31.998532,72 23.5990925,72 C15.0519151,72 10,67.6213057 10,60.5720488 C10,54.239105 13.6430001,50.2865253 19.2750567,50.0477542 L19.2750567,54.1913508 C15.8302416,54.4301219 13.8375817,56.7149775 13.8375817,60.5720488" id="Fill-21" fill="#fff" mask="url(#mask-6)"/>
            <path d="M27.9832157,24.3278742 C33.6047689,25.2142155 37,29.2784147 37,35.0252211 C37,41.7484442 32.0042627,46 23.7679499,46 C14.9957373,46 10,41.7484442 10,35.0252211 C10,28.0641991 14.6072999,24 22.8472093,24 C23.4766218,24 24.1060344,24 24.7354469,24.0468392 L24.7354469,41.705208 C30.116025,41.6079266 33.1192221,38.9957419 33.1192221,34.6505077 C33.1192221,31.2852932 31.2777408,29.0442188 27.9832157,28.3920734 L27.9832157,24.3278742 Z M21.1963501,28.298395 C16.3984281,28.3452342 13.7836686,30.7268261 13.7836686,34.8847036 C13.7836686,38.9452997 16.3516718,41.3304946 21.1963501,41.705208 L21.1963501,28.298395 Z" id="Fill-22" fill="#fff" mask="url(#mask-6)"/>
            <path d="M27.9506684,16.0281132 C31.4050802,15.7469814 33.2026738,13.6457019 33.2026738,9.81438097 C33.2026738,6.21733646 31.6,4.11245269 29.1671123,4.11245269 C27.0266043,4.11245269 26.344385,5.32708596 25.7127005,7.85006307 L24.4962567,12.4310687 C23.2798128,17.2427464 21.5796791,19.344026 17.3455882,19.344026 C12.9671123,19.344026 10,16.0281132 10,10.185619 C10,4.34672914 13.0645722,0.655974049 17.7859626,0.655974049 L17.8834225,0.655974049 L17.8834225,4.67471617 C15.2050802,4.81528203 13.6493316,6.86970625 13.6493316,10.185619 C13.6493316,13.5051361 14.9127005,15.2351775 17.2012032,15.2351775 C19.0493316,15.2351775 19.7315508,14.0205442 20.3632353,11.4038566 L21.3342246,7.43196972 C22.5506684,2.43287079 24.1569519,0 28.6328877,0 C33.8379679,0 37,3.6438998 37,10.185619 C37,16.4498108 33.7874332,19.9062894 27.9506684,20 L27.9506684,16.0281132 Z" id="Fill-23" fill="#fff" mask="url(#mask-6)"/>
            <polyline id="Fill-24" fill="#fff" mask="url(#mask-6)" points="21.072 214 21.072 485 18.928 485 18.928 214"/>
            <polygon id="Fill-25" fill="#fff" mask="url(#mask-6)" points="80 347 80 344.502762 70.9990663 344.502762 70.9990663 331 68 331 68 347"/>
            <path d="M97,347 L91.1067641,331 L87.8897007,331 L82,347 L85.135753,347 L86.2705633,343.559853 L92.7294367,343.559853 L93.864247,347 L97,347 Z M91.9092623,341.084715 L87.1119491,341.084715 L89.1517794,334.922652 L89.5088381,333.519337 L89.8482206,334.922652 L91.9092623,341.084715 Z" id="Fill-26" fill="#fff" mask="url(#mask-6)"/>
            <path d="M114,342.178637 C114,341.302026 113.733083,340.314917 113.015038,339.593002 C112.454887,339.022099 111.917293,338.694291 110.330827,338.410681 C111.537594,338.211786 111.962406,337.990792 112.477444,337.441989 C113.06015,336.830571 113.417293,335.998158 113.417293,334.98895 C113.417293,332.491713 111.473684,331 108.161654,331 L101,331 L101,347 L108.631579,347 C112.075188,347 114,344.502762 114,342.178637 M110.398496,335.360958 C110.398496,336.742173 109.278195,337.401473 107.958647,337.401473 L104.022556,337.401473 L104.022556,333.500921 L108.451128,333.500921 C109.612782,333.500921 110.398496,334.244936 110.398496,335.360958 M110.93609,342.090239 C110.93609,343.799263 109.545113,344.502762 108.338346,344.502762 L104.022556,344.502762 L104.022556,339.832413 L108.695489,339.832413 C109.883459,339.832413 110.93609,340.642726 110.93609,342.090239" id="Fill-27" fill="#fff" mask="url(#mask-6)"/>
            <polygon id="Fill-28" fill="#fff" mask="url(#mask-6)" points="117.394 346.642 120.606 346.642 120.606 343.358 117.394 343.358"/>
        </g>
    </g>
</svg>